
        <svg xmlns="http://www.w3.org/2000/svg" xmlns:xlink="http://www.w3.org/1999/xlink" version="1.1" width="3307.6923076923076" 
        height="1461.4258912141954" viewBox="0 0 3307.6923076923076 1461.4258912141954">
			
			<g transform="scale(15.384615384615385) translate(10, 10)">
				<defs id="SvgjsDefs1380"></defs><g id="SvgjsG1381" featureKey="v37d4h-0" transform="matrix(0.6875004589560713,0,0,0.6875004589560713,13.124957382650535,13.117643589830887)" fill="#0d055b"><path xmlns="http://www.w3.org/2000/svg" d="M61.1748,32.91357c-2.12585,0-4.23553,0.24359-6.29187,0.6972c0.38275-6.06653-1.74719-12.25079-6.42102-16.96136  c-8.67383-8.74023-22.91211-8.8667-31.74023-0.28174c-4.28027,4.16211-6.66797,9.72607-6.7207,15.6665  c-0.05371,5.93945,2.23242,11.54346,6.43555,15.78027c4.43445,4.46808,10.39587,6.79449,16.49567,6.65228  c-1.09943,4.85431-0.45886,9.73114-0.43317,9.91852c0.32129,3.11816,1.52441,7.16699,3.07129,10.33887  c1.35352,4.52539-7.12109,7.92529-7.20703,7.95898c-0.30762,0.12158-0.53516,0.38672-0.6084,0.70898  c-0.07324,0.32275,0.01758,0.66064,0.24219,0.90234c6.10352,6.56641,14.43945,2.07324,16.74707,0.61816  C49.58105,88.24316,55.24609,90,61.1748,90C77.06934,90,90,77.1958,90,61.45703S77.06934,32.91357,61.1748,32.91357z   M17.85645,46.40527c-3.82422-3.85449-5.9043-8.95166-5.85547-14.35303c0.04785-5.40283,2.21973-10.46387,6.11523-14.25098  c8.04492-7.82324,21.02246-7.70752,28.92578,0.25732c7.80176,7.8623,7.87305,20.2417,0.16211,28.18164  c-0.1377,0.14209-0.27832,0.28271-0.4209,0.4209c-0.02637,0.02539-0.05078,0.05225-0.07422,0.08057  c-1.18945,1.4375-1.20312,2.72705-1.00586,3.55566c0.29297,1.22607,1.18848,2.18018,2.05078,2.84521  c-5.05664,1.55615-7.85938-1.25732-7.98535-1.3877c-0.19238-0.20361-0.45605-0.31396-0.72754-0.31396  c-0.10156,0-0.2041,0.01562-0.30371,0.04736C31.31641,53.85352,23.31348,51.90576,17.85645,46.40527z M61.1748,88  c-5.73828,0-11.21191-1.76709-15.82715-5.10986c-0.35449-0.25537-0.83203-0.25439-1.18262,0.00684  c-0.08203,0.06055-7.81934,5.68799-13.65918,1.00977c2.78223-1.37891,8.53223-4.90137,6.94922-9.85693  c-0.01465-0.04688-0.0332-0.09277-0.05469-0.13672c-1.46777-2.9873-2.61035-6.80762-2.91504-9.76465  c-0.00769-0.05188-0.67133-5.16327,0.54529-9.836c1.25897-0.14691,2.51721-0.38745,3.76233-0.75043  c0.87988,0.71777,2.93359,2.05811,6.00391,2.05811c1.60645,0,3.49121-0.36768,5.63184-1.3833  c0.35352-0.16748,0.5752-0.52637,0.57031-0.91748c-0.00586-0.39111-0.23926-0.74365-0.59668-0.90137  c-0.66602-0.29395-2.45703-1.33154-2.75391-2.58789c-0.13184-0.55664,0.05469-1.13721,0.56934-1.77393  c0.1416-0.13867,0.28223-0.2793,0.4209-0.42139c3.32336-3.42212,5.31219-7.59613,6.0097-11.9248  c2.12238-0.5249,4.31635-0.79639,6.52643-0.79639C75.96582,34.91357,88,46.8208,88,61.45703C88,76.09277,75.96582,88,61.1748,88z"></path><path xmlns="http://www.w3.org/2000/svg" d="M71.32422,57.09033H51.625c-0.55273,0-1,0.44775-1,1s0.44727,1,1,1h19.69922c0.55273,0,1-0.44775,1-1  S71.87695,57.09033,71.32422,57.09033z"></path><path xmlns="http://www.w3.org/2000/svg" d="M71.32422,66.65479H51.625c-0.55273,0-1,0.44775-1,1s0.44727,1,1,1h19.69922c0.55273,0,1-0.44775,1-1  S71.87695,66.65479,71.32422,66.65479z"></path><path xmlns="http://www.w3.org/2000/svg" d="M40.73926,44.00146c0.30762-0.22363,0.46191-0.60303,0.39746-0.97803l-1.38184-8.05811l5.85449-5.70703  c0.27246-0.26562,0.37012-0.66309,0.25293-1.0249c-0.11816-0.36182-0.43066-0.62598-0.80762-0.68066l-8.08984-1.17578  l-3.61914-7.33154c-0.33594-0.68359-1.45703-0.68262-1.79297,0l-3.61816,7.33154l-8.09082,1.17578  c-0.37695,0.05469-0.68945,0.31885-0.80762,0.68066c-0.11719,0.3623-0.01953,0.75928,0.25293,1.02539l5.85547,5.70654  l-1.38281,8.05811c-0.06445,0.375,0.08984,0.75439,0.39746,0.97803c0.17383,0.12646,0.38086,0.19092,0.58789,0.19092  c0.15918,0,0.31934-0.03809,0.46582-0.11475l7.23633-3.80469l7.23633,3.80469  C40.02344,44.25439,40.42969,44.22559,40.73926,44.00146z M32.91504,38.25781c-0.14648-0.07666-0.30566-0.11475-0.46582-0.11475  s-0.31934,0.03809-0.46582,0.11475l-5.9082,3.10645l1.12891-6.5791c0.05566-0.32422-0.05176-0.65527-0.28711-0.88525  l-4.78027-4.65918l6.60547-0.95996c0.32617-0.04736,0.60742-0.25195,0.75293-0.54736l2.9541-5.98584l2.95508,5.98584  c0.14551,0.29541,0.42676,0.5,0.75293,0.54736l6.60547,0.95996l-4.78027,4.65967c-0.23535,0.22949-0.34277,0.56055-0.28711,0.88477  l1.12793,6.5791L32.91504,38.25781z"></path></g><g id="SvgjsG1382" featureKey="UxBHKT-0" transform="matrix(1.3231013175089856,0,0,1.3231013175089856,94.1532150179954,31.64911342359532)" fill="#0d055b"><path d="M4.88 20 l-3 0 l0 -8.26 l-1.24 0 l0 -2.56 l1.24 0 q0.08 -2.14 1.22 -3.26 t3.16 -1.12 q0.6 0 1.32 0.18 l-0.16 2.42 q-0.38 -0.12 -0.82 -0.12 q-1.08 0 -1.4 0.54 t-0.32 1.36 l1.98 0 l0 2.56 l-1.98 0 l0 8.26 z M11.21 19.49 q-1.37 -0.77 -2.17 -2.09 t-0.8 -2.88 q0 -1.54 0.8 -2.86 t2.17 -2.09 t2.99 -0.77 t3 0.77 t2.19 2.09 t0.81 2.86 q0 1.56 -0.81 2.88 t-2.19 2.09 t-3 0.77 t-2.99 -0.77 z M12.68 11.83 q-0.7 0.41 -1.1 1.12 t-0.4 1.57 q0 0.9 0.39 1.61 t1.08 1.12 t1.55 0.41 q0.84 0 1.53 -0.41 t1.09 -1.13 t0.4 -1.6 q0 -0.86 -0.4 -1.57 t-1.09 -1.12 t-1.53 -0.41 q-0.82 0 -1.52 0.41 z M27.880000000000003 11.87 q-0.86 0.21 -1.58 0.99 t-0.72 2.28 l0 4.86 l-2.98 0 l0 -11 l2.98 0 l0 1.46 q0.74 -0.98 1.81 -1.33 t1.95 -0.33 l0 2.92 q-0.6 -0.06 -1.46 0.15 z M34.82 16.08 q0 0.7 0.24 1.17 t1.12 0.47 q0.4 0 0.76 -0.04 l0 2.52 q-0.72 0.08 -1.34 0.08 q-1.28 0 -2.07 -0.21 t-1.23 -0.81 t-0.44 -1.72 l0 -6.1 l-1.34 0 l0 -2.62 l1.34 0 l0 -2.94 l2.96 0 l0 2.94 l2.2 0 l0 2.62 l-2.2 0 l0 4.64 z M42.129999999999995 19.74 q-1.37 -0.54 -2.35 -1.83 t-0.98 -3.37 t0.99 -3.36 t2.37 -1.82 t2.62 -0.54 q1.44 0 2.74 0.64 t2.13 1.88 t0.87 2.94 q0 0.52 -0.02 0.9 t-0.04 0.48 l-8.68 0 q0.24 1.16 1.2 1.58 t1.8 0.42 q1.08 0 1.72 -0.39 t1.1 -0.89 l2.32 1.34 q-1.88 2.56 -5.14 2.56 q-1.28 0 -2.65 -0.54 z M42.739999999999995 12.05 q-0.78 0.61 -0.88 1.49 l5.5 0 q-0.06 -0.52 -0.4 -1 t-0.91 -0.79 t-1.29 -0.31 q-1.24 0 -2.02 0.61 z M55.42 19.51 q-1.38 -0.77 -2.19 -2.09 t-0.81 -2.88 t0.81 -2.87 t2.18 -2.08 t2.99 -0.77 q1.74 0 3.15 0.83 t2.25 2.37 l-2.7 1.06 q-0.48 -0.82 -1.18 -1.23 t-1.52 -0.41 q-1.3 0 -2.15 0.88 t-0.85 2.22 t0.86 2.22 t2.16 0.88 q1.8 0 2.78 -1.6 l2.54 1 q-1.58 3.24 -5.32 3.24 q-1.62 0 -3 -0.77 z M75.19 10.02 q1.03 1.22 1.03 3.48 l0 6.5 l-3.04 0 l0 -6.5 q0 -1.18 -0.59 -1.7 t-1.55 -0.52 q-0.82 0 -1.48 0.65 t-0.62 2.25 l0 5.82 l-2.98 0 l0 -15.14 l2.98 0 l0 5.12 q0.54 -0.54 1.36 -0.86 t1.58 -0.32 q2.28 0 3.31 1.22 z"></path></g>
			</g>
		</svg>
	